<svg id="visual" viewBox="0 0 960 540" width="960" height="540" xmlns="http://www.w3.org/2000/svg" xmlns:xlink="http://www.w3.org/1999/xlink" version="1.1"><g stroke-width="1" stroke-linejoin="bevel"><path d="M447 257L484 194L420 194Z" fill="#545353" stroke="#545353"></path><path d="M447 257L528 249L484 194Z" fill="#444343" stroke="#444343"></path><path d="M420 194L389 312L447 257Z" fill="#252424" stroke="#252424"></path><path d="M447 257L539 313L528 249Z" fill="#343333" stroke="#343333"></path><path d="M457 355L539 313L447 257Z" fill="#656464" stroke="#656464"></path><path d="M484 194L385 101L420 194Z" fill="#aeadad" stroke="#aeadad"></path><path d="M420 194L289 177L389 312Z" fill="#000000" stroke="#000000"></path><path d="M389 312L457 355L447 257Z" fill="#000000" stroke="#000000"></path><path d="M649 307L588 180L528 249Z" fill="#343333" stroke="#343333"></path><path d="M528 249L588 180L484 194Z" fill="#9b9a9a" stroke="#9b9a9a"></path><path d="M484 194L512 73L385 101Z" fill="#000000" stroke="#000000"></path><path d="M588 180L512 73L484 194Z" fill="#252424" stroke="#252424"></path><path d="M389 312L401 376L457 355Z" fill="#161515" stroke="#161515"></path><path d="M385 101L289 177L420 194Z" fill="#aeadad" stroke="#aeadad"></path><path d="M389 312L294 364L401 376Z" fill="#777676" stroke="#777676"></path><path d="M588 180L604 134L512 73Z" fill="#000000" stroke="#000000"></path><path d="M289 177L274 292L389 312Z" fill="#aeadad" stroke="#aeadad"></path><path d="M274 292L294 364L389 312Z" fill="#252424" stroke="#252424"></path><path d="M556 495L649 307L539 313Z" fill="#000000" stroke="#000000"></path><path d="M539 313L649 307L528 249Z" fill="#252424" stroke="#252424"></path><path d="M588 180L711 160L604 134Z" fill="#9b9a9a" stroke="#9b9a9a"></path><path d="M510 458L539 313L457 355Z" fill="#343333" stroke="#343333"></path><path d="M566 0L442 0L512 73Z" fill="#545353" stroke="#545353"></path><path d="M512 73L442 0L385 101Z" fill="#000000" stroke="#000000"></path><path d="M385 101L255 83L289 177Z" fill="#898888" stroke="#898888"></path><path d="M442 0L369 0L385 101Z" fill="#777676" stroke="#777676"></path><path d="M287 0L255 83L385 101Z" fill="#444343" stroke="#444343"></path><path d="M289 177L207 225L274 292Z" fill="#000000" stroke="#000000"></path><path d="M201 132L207 225L289 177Z" fill="#161515" stroke="#161515"></path><path d="M274 292L189 358L294 364Z" fill="#545353" stroke="#545353"></path><path d="M604 134L566 0L512 73Z" fill="#656464" stroke="#656464"></path><path d="M422 540L510 458L401 376Z" fill="#9b9a9a" stroke="#9b9a9a"></path><path d="M401 376L510 458L457 355Z" fill="#444343" stroke="#444343"></path><path d="M188 403L330 438L294 364Z" fill="#777676" stroke="#777676"></path><path d="M294 364L330 438L401 376Z" fill="#000000" stroke="#000000"></path><path d="M255 83L201 132L289 177Z" fill="#343333" stroke="#343333"></path><path d="M649 307L711 160L588 180Z" fill="#777676" stroke="#777676"></path><path d="M604 134L633 0L566 0Z" fill="#252424" stroke="#252424"></path><path d="M369 0L287 0L385 101Z" fill="#161515" stroke="#161515"></path><path d="M255 83L160 0L201 132Z" fill="#656464" stroke="#656464"></path><path d="M678 45L633 0L604 134Z" fill="#656464" stroke="#656464"></path><path d="M711 160L678 45L604 134Z" fill="#aeadad" stroke="#aeadad"></path><path d="M201 132L159 248L207 225Z" fill="#656464" stroke="#656464"></path><path d="M207 225L159 248L274 292Z" fill="#161515" stroke="#161515"></path><path d="M534 540L556 495L510 458Z" fill="#777676" stroke="#777676"></path><path d="M510 458L556 495L539 313Z" fill="#545353" stroke="#545353"></path><path d="M159 248L189 358L274 292Z" fill="#aeadad" stroke="#aeadad"></path><path d="M276 540L345 497L330 438Z" fill="#252424" stroke="#252424"></path><path d="M330 438L345 497L401 376Z" fill="#000000" stroke="#000000"></path><path d="M649 307L754 236L711 160Z" fill="#898888" stroke="#898888"></path><path d="M711 160L777 86L678 45Z" fill="#777676" stroke="#777676"></path><path d="M745 360L754 236L649 307Z" fill="#aeadad" stroke="#aeadad"></path><path d="M556 495L709 378L649 307Z" fill="#545353" stroke="#545353"></path><path d="M105 440L188 403L189 358Z" fill="#777676" stroke="#777676"></path><path d="M189 358L188 403L294 364Z" fill="#343333" stroke="#343333"></path><path d="M422 540L465 540L510 458Z" fill="#252424" stroke="#252424"></path><path d="M345 497L422 540L401 376Z" fill="#161515" stroke="#161515"></path><path d="M718 407L745 360L709 378Z" fill="#000000" stroke="#000000"></path><path d="M709 378L745 360L649 307Z" fill="#777676" stroke="#777676"></path><path d="M556 495L718 407L709 378Z" fill="#545353" stroke="#545353"></path><path d="M465 540L534 540L510 458Z" fill="#252424" stroke="#252424"></path><path d="M668 540L730 441L718 407Z" fill="#000000" stroke="#000000"></path><path d="M881 146L780 152L754 236Z" fill="#000000" stroke="#000000"></path><path d="M754 236L780 152L711 160Z" fill="#161515" stroke="#161515"></path><path d="M780 152L777 86L711 160Z" fill="#545353" stroke="#545353"></path><path d="M678 45L771 0L633 0Z" fill="#656464" stroke="#656464"></path><path d="M718 407L730 441L745 360Z" fill="#aeadad" stroke="#aeadad"></path><path d="M668 540L718 407L556 495Z" fill="#9b9a9a" stroke="#9b9a9a"></path><path d="M287 0L160 0L255 83Z" fill="#777676" stroke="#777676"></path><path d="M53 149L49 254L159 248Z" fill="#343333" stroke="#343333"></path><path d="M188 403L276 540L330 438Z" fill="#656464" stroke="#656464"></path><path d="M345 497L276 540L422 540Z" fill="#656464" stroke="#656464"></path><path d="M159 248L95 319L189 358Z" fill="#161515" stroke="#161515"></path><path d="M188 403L175 540L276 540Z" fill="#aeadad" stroke="#aeadad"></path><path d="M49 254L95 319L159 248Z" fill="#444343" stroke="#444343"></path><path d="M777 86L771 0L678 45Z" fill="#444343" stroke="#444343"></path><path d="M534 540L668 540L556 495Z" fill="#343333" stroke="#343333"></path><path d="M53 149L159 248L201 132Z" fill="#9b9a9a" stroke="#9b9a9a"></path><path d="M50 116L53 149L201 132Z" fill="#252424" stroke="#252424"></path><path d="M0 356L105 440L95 319Z" fill="#898888" stroke="#898888"></path><path d="M95 319L105 440L189 358Z" fill="#9b9a9a" stroke="#9b9a9a"></path><path d="M160 0L50 116L201 132Z" fill="#161515" stroke="#161515"></path><path d="M53 149L0 153L49 254Z" fill="#656464" stroke="#656464"></path><path d="M105 440L175 540L188 403Z" fill="#777676" stroke="#777676"></path><path d="M160 0L80 0L50 116Z" fill="#444343" stroke="#444343"></path><path d="M903 270L881 146L754 236Z" fill="#898888" stroke="#898888"></path><path d="M780 152L881 146L777 86Z" fill="#161515" stroke="#161515"></path><path d="M777 86L844 0L771 0Z" fill="#777676" stroke="#777676"></path><path d="M903 270L754 236L745 360Z" fill="#898888" stroke="#898888"></path><path d="M909 78L844 0L777 86Z" fill="#252424" stroke="#252424"></path><path d="M668 540L768 540L730 441Z" fill="#343333" stroke="#343333"></path><path d="M896 400L903 270L745 360Z" fill="#9b9a9a" stroke="#9b9a9a"></path><path d="M876 421L745 360L730 441Z" fill="#252424" stroke="#252424"></path><path d="M0 132L53 149L50 116Z" fill="#000000" stroke="#000000"></path><path d="M0 132L0 153L53 149Z" fill="#343333" stroke="#343333"></path><path d="M49 254L0 287L95 319Z" fill="#161515" stroke="#161515"></path><path d="M0 153L0 287L49 254Z" fill="#545353" stroke="#545353"></path><path d="M0 0L0 132L50 116Z" fill="#aeadad" stroke="#aeadad"></path><path d="M768 540L876 421L730 441Z" fill="#aeadad" stroke="#aeadad"></path><path d="M105 440L108 540L175 540Z" fill="#aeadad" stroke="#aeadad"></path><path d="M0 540L108 540L105 440Z" fill="#777676" stroke="#777676"></path><path d="M0 287L0 356L95 319Z" fill="#444343" stroke="#444343"></path><path d="M881 146L909 78L777 86Z" fill="#898888" stroke="#898888"></path><path d="M960 142L909 78L881 146Z" fill="#000000" stroke="#000000"></path><path d="M960 344L896 400L960 462Z" fill="#252424" stroke="#252424"></path><path d="M876 421L896 400L745 360Z" fill="#444343" stroke="#444343"></path><path d="M80 0L0 0L50 116Z" fill="#aeadad" stroke="#aeadad"></path><path d="M0 356L0 437L105 440Z" fill="#545353" stroke="#545353"></path><path d="M960 308L960 142L903 270Z" fill="#161515" stroke="#161515"></path><path d="M903 270L960 142L881 146Z" fill="#343333" stroke="#343333"></path><path d="M960 344L960 308L903 270Z" fill="#aeadad" stroke="#aeadad"></path><path d="M896 400L960 344L903 270Z" fill="#000000" stroke="#000000"></path><path d="M960 462L896 400L876 421Z" fill="#000000" stroke="#000000"></path><path d="M768 540L865 540L876 421Z" fill="#aeadad" stroke="#aeadad"></path><path d="M960 142L960 48L909 78Z" fill="#aeadad" stroke="#aeadad"></path><path d="M909 78L960 0L844 0Z" fill="#9b9a9a" stroke="#9b9a9a"></path><path d="M960 48L960 0L909 78Z" fill="#545353" stroke="#545353"></path><path d="M0 437L0 540L105 440Z" fill="#656464" stroke="#656464"></path><path d="M865 540L960 462L876 421Z" fill="#343333" stroke="#343333"></path><path d="M865 540L960 540L960 462Z" fill="#898888" stroke="#898888"></path></g></svg>