<?xml version="1.0" standalone="no"?>
<!DOCTYPE svg PUBLIC "-//W3C//DTD SVG 20010904//EN"
 "http://www.w3.org/TR/2001/REC-SVG-20010904/DTD/svg10.dtd">
<svg version="1.0" xmlns="http://www.w3.org/2000/svg"
 width="512.000000pt" height="512.000000pt" viewBox="0 0 512.000000 512.000000"
 preserveAspectRatio="xMidYMid meet">
<metadata>
Created by potrace 1.16, written by Peter Selinger 2001-2019
</metadata>
<g transform="translate(0.000000,512.000000) scale(0.100000,-0.100000)"
fill="cyan" stroke="none">
<path d="M1638 4046 c-57 -20 -85 -42 -116 -88 -24 -36 -27 -51 -27 -119 0
-70 3 -81 30 -121 17 -23 51 -54 75 -68 l45 -25 1450 0 c1601 0 1472 -5 1539
61 46 46 60 83 61 154 0 85 -34 147 -103 187 l-47 28 -1435 2 c-1179 2 -1442
0 -1472 -11z"/>
<path d="M578 2770 c-52 -16 -98 -52 -126 -98 -22 -38 -27 -59 -27 -112 0 -85
34 -147 103 -187 l47 -28 1985 0 c1829 0 1987 1 2015 17 80 43 119 108 120
198 0 85 -34 147 -103 187 l-47 28 -1970 2 c-1084 1 -1982 -2 -1997 -7z"/>
<path d="M2498 1490 c-52 -16 -98 -52 -126 -98 -22 -38 -27 -59 -27 -112 0
-85 34 -147 103 -187 l47 -28 1025 0 c1130 0 1048 -5 1114 61 46 46 60 83 61
154 0 85 -34 147 -103 187 l-47 28 -1010 2 c-555 1 -1022 -2 -1037 -7z"/>
</g>
</svg>
