<svg xmlns="http://www.w3.org/2000/svg" version="1.1" xmlns:xlink="http://www.w3.org/1999/xlink" xmlns:svgjs="http://svgjs.com/svgjs" width="1920" height="1080" preserveAspectRatio="none" viewBox="0 0 1920 1080"><g mask="url(&quot;#SvgjsMask1016&quot;)" fill="none"><rect width="1920" height="1080" x="0" y="0" fill="rgba(36, 41, 45, 1)"></rect><path d="M1893.495,567.398C1955.969,568.837,2014.259,535.392,2045.85,481.474C2077.793,426.956,2081.057,358.135,2047.463,304.619C2015.655,253.948,1953.318,239.444,1893.495,238.772C1832.129,238.083,1764.846,248.38,1733.421,301.094C1701.459,354.709,1720.675,421.226,1752.832,474.724C1783.836,526.304,1833.33,566.012,1893.495,567.398" fill="rgba(28, 83, 142, 0.4)" class="triangle-float2"></path><path d="M1244.485,506.363C1325.323,511.737,1408.193,477.492,1448.4,407.157C1488.363,337.25,1468.832,252.871,1429.594,182.554C1389.103,109.992,1327.483,37.711,1244.485,41.733C1165.301,45.571,1122.023,127.479,1088.047,199.107C1059.903,258.44,1052.888,324.322,1082.684,382.843C1115.681,447.651,1171.92,501.539,1244.485,506.363" fill="rgba(28, 83, 142, 0.4)" class="triangle-float2"></path><path d="M1704.327918122722 933.945038988678L1686.8751818091478 684.359281701856 1437.2894245223256 701.8120180154303 1454.7421608359 951.3977753022523z" fill="rgba(28, 83, 142, 0.4)" class="triangle-float2"></path><path d="M577.1753756396289 191.76849146028138L638.518884978083 93.59835533340126 460.59192611853575 50.66815938916031z" fill="rgba(28, 83, 142, 0.4)" class="triangle-float1"></path><path d="M1103.159,263.577C1140.359,263.792,1170.435,237.287,1189.463,205.321C1209.029,172.452,1219.421,132.523,1201.189,98.896C1182.232,63.932,1142.845,43.537,1103.159,46.144C1067.118,48.511,1042.189,78.607,1025.156,110.458C1009.301,140.107,1003.299,174.376,1018.561,204.335C1035.31,237.213,1066.262,263.364,1103.159,263.577" fill="rgba(28, 83, 142, 0.4)" class="triangle-float1"></path><path d="M614.2158213703847 389.10014437895074L572.7351586109113 649.3929908276064 789.2478981063585 570.5887983118312z" fill="rgba(28, 83, 142, 0.4)" class="triangle-float3"></path><path d="M789.5884650053927 110.3240087458127L879.5073886402569 344.5708134160342 1113.7541933104783 254.65188978116993 1023.8352696756141 20.405085110948477z" fill="rgba(28, 83, 142, 0.4)" class="triangle-float1"></path><path d="M334.3821477626008 1096.9935252762218L560.335877337583 1044.827996451171 508.17034851253214 818.8742668761888 282.21661893755 871.0397957012397z" fill="rgba(28, 83, 142, 0.4)" class="triangle-float2"></path><path d="M1028.0193093771218 841.5234560535097L1221.3477018474505 734.3597782043933 920.8556315280053 648.1950635831811z" fill="rgba(28, 83, 142, 0.4)" class="triangle-float2"></path><path d="M1050.0642237491684 903.2796089987768L931.7829268940968 1049.344846156383 1077.848164051703 1167.6261430114546 1196.1294609067745 1021.5609058538482z" fill="rgba(28, 83, 142, 0.4)" class="triangle-float3"></path></g><defs><mask id="SvgjsMask1016"><rect width="1920" height="1080" fill="#ffffff"></rect></mask><style>
            @keyframes float1 {
                0%{transform: translate(0, 0)}
                50%{transform: translate(-10px, 0)}
                100%{transform: translate(0, 0)}
            }

            .triangle-float1 {
                animation: float1 5s infinite;
            }

            @keyframes float2 {
                0%{transform: translate(0, 0)}
                50%{transform: translate(-5px, -5px)}
                100%{transform: translate(0, 0)}
            }

            .triangle-float2 {
                animation: float2 4s infinite;
            }

            @keyframes float3 {
                0%{transform: translate(0, 0)}
                50%{transform: translate(0, -10px)}
                100%{transform: translate(0, 0)}
            }

            .triangle-float3 {
                animation: float3 6s infinite;
            }
        </style></defs></svg>