<?xml version="1.0" standalone="no"?>
<!DOCTYPE svg PUBLIC "-//W3C//DTD SVG 20010904//EN"
 "http://www.w3.org/TR/2001/REC-SVG-20010904/DTD/svg10.dtd">
<svg version="1.0" xmlns="http://www.w3.org/2000/svg"
 width="512.000000pt" height="512.000000pt" viewBox="0 0 512.000000 512.000000"
 preserveAspectRatio="xMidYMid meet">
<metadata>
Created by potrace 1.16, written by Peter Selinger 2001-2019
</metadata>
<g transform="translate(0.000000,512.000000) scale(0.100000,-0.100000)"
fill="#ffffff" stroke="none">
<path d="M975 5104 c-428 -76 -784 -386 -918 -799 -59 -182 -57 -112 -57
-1745 0 -1308 2 -1508 15 -1581 93 -499 474 -879 969 -964 134 -23 3018 -23
3152 0 494 85 876 465 969 964 23 124 23 1214 -1 1269 -37 89 -124 145 -225
146 -54 0 -74 -5 -120 -30 -60 -34 -112 -106 -123 -171 -3 -21 -6 -277 -6
-569 0 -495 -1 -536 -20 -608 -62 -245 -261 -444 -506 -506 -75 -19 -117 -20
-1544 -20 -1427 0 -1469 1 -1544 20 -245 62 -444 261 -506 506 -19 75 -20 117
-20 1544 0 1416 1 1469 19 1542 64 249 260 445 509 509 70 18 115 19 606 19
292 0 548 3 569 6 20 4 60 21 89 38 165 100 145 356 -34 430 -32 14 -114 16
-615 15 -454 -1 -595 -4 -658 -15z"/>
<path d="M3275 5101 c-46 -20 -101 -79 -121 -127 -18 -43 -18 -145 -1 -187 22
-50 65 -96 118 -122 l48 -25 488 0 488 0 -972 -972 c-534 -535 -979 -989 -989
-1008 -11 -23 -18 -58 -18 -101 0 -54 5 -74 30 -120 63 -112 205 -157 319
-102 17 8 468 452 1003 986 l972 972 0 -488 c0 -387 3 -494 13 -520 82 -194
372 -194 454 0 10 26 13 185 13 843 0 803 0 811 -21 855 -12 25 -37 58 -55 75
-72 63 -28 60 -918 60 -763 0 -813 -2 -851 -19z"/>
</g>
</svg>
